<?xml version="1.0" encoding="UTF-8"?>
<svg width="64" height="64" version="1" xmlns="http://www.w3.org/2000/svg">
 <path d="m32.495 5a12.95 14 0 0 0-11.761 8.1797 14.308 12.672 24.336 0 0-13.161 5.8203 14.308 12.672 24.336 0 0 1.4007 14 12.672 14.308 65.664 0 0-1.4007 14 12.672 14.308 65.664 0 0 13.163 5.8223 12.95 14 0 0 0 11.759 8.1777 12.95 14 0 0 0 11.763-8.1777c5.4829 0.71499 10.624-1.5599 13.161-5.8223 2.6146-4.4053 1.8728-9.8693-1.3968-14.004a12.672 14.308 65.664 0 0 0.8127-1.1328 12.672 14.308 65.664 0 0 2e-3 -0.0039 12.672 14.308 65.664 0 0 0.68572-1.1797 12.672 14.308 65.664 0 0 0.0078-0.01953 12.672 14.308 65.664 0 0 0.52943-1.1562 12.672 14.308 65.664 0 0 0.03712-0.0918 12.672 14.308 65.664 0 0 0.379-1.1133 12.672 14.308 65.664 0 0 0.05861-0.19531 12.672 14.308 65.664 0 0 0.23834-1.041 12.672 14.308 65.664 0 0 0.05079-0.27539 12.672 14.308 65.664 0 0 0.11917-0.99219 12.672 14.308 65.664 0 0 0.0254-0.32031 12.672 14.308 65.664 0 0 0.01172-0.95508 12.672 14.308 65.664 0 0-0.01172-0.34766 12.672 14.308 65.664 0 0-0.08596-0.89258 12.672 14.308 65.664 0 0-0.05665-0.40039 12.672 14.308 65.664 0 0-0.17586-0.83008 12.672 14.308 65.664 0 0-0.11331-0.43555 12.672 14.308 65.664 0 0-0.24029-0.72266 12.672 14.308 65.664 0 0-0.19341-0.50586 12.672 14.308 65.664 0 0-0.28523-0.61524 12.672 14.308 65.664 0 0-0.39854-0.76953 12.672 14.308 65.664 0 0-0.60952-0.9043 12.672 14.308 65.664 0 0-0.38291-0.48242 12.672 14.308 65.664 0 0-0.42784-0.50586 12.672 14.308 65.664 0 0-0.42198-0.42383 12.672 14.308 65.664 0 0-0.50208-0.47656 12.672 14.308 65.664 0 0-0.47082-0.38086 12.672 14.308 65.664 0 0-0.5392-0.41016 12.672 14.308 65.664 0 0-0.55873-0.35938 12.672 14.308 65.664 0 0-0.54506-0.32812 12.672 14.308 65.664 0 0-0.62515-0.31641 12.672 14.308 65.664 0 0-0.55873-0.26172 12.672 14.308 65.664 0 0-0.65836-0.25391 12.672 14.308 65.664 0 0-0.61539-0.21484 12.672 14.308 65.664 0 0-0.66423-0.18164 12.672 14.308 65.664 0 0-0.64274-0.15625 12.672 14.308 65.664 0 0-0.68767-0.11719 12.672 14.308 65.664 0 0-0.68572-0.097656 12.672 14.308 65.664 0 0-1.1722-0.08789 12.672 14.308 65.664 0 0-2.3932 0.13672 12.95 14 0 0 0-11.763-8.1777z" opacity=".2"/>
 <ellipse cx="32.498" cy="32" rx="23.017" ry="22.4" fill="#278df2"/>
 <ellipse transform="matrix(.51023 .86004 -.87181 .48984 0 0)" cx="43.83" cy="-25.917" rx="12.688" ry="14.29" fill="#34e0c4"/>
 <ellipse cx="32.498" cy="46" rx="12.947" ry="14" fill="#ffc107"/>
 <ellipse transform="matrix(.51023 .86004 -.87181 .48984 0 0)" cx="43.83" cy="2.664" rx="12.688" ry="14.29" fill="#fb8300"/>
 <ellipse transform="matrix(-.51023 .86004 .87181 .48984 0 0)" cx="11.983" cy="30" rx="12.688" ry="14.29" fill="#fa3e30"/>
 <path d="m32.498 4a12.947 14 0 0 0-12.947 14 12.947 14 0 0 0 12.947 14 12.671 14.305 65.62 0 1 5.9847-17.913 12.671 14.305 65.62 0 1 5.774-1.9086 12.947 14 0 0 0-11.759-8.1785zm0 28a12.947 14 0 0 0 12.307-9.6824 12.947 14 0 0 1-1.7392 3.7379 14.305 12.671 24.38 0 0-10.567 5.9445zm12.307-9.6824a12.947 14 0 0 0 0.31188-1.2359 12.947 14 0 0 1-0.31188 1.2359zm-0.39617-9.7672a12.947 14 0 0 1 0.4327 1.277 12.947 14 0 0 0-0.4327-1.277zm0.45237 1.3344a12.947 14 0 0 1 0.26412 1.1074 12.947 14 0 0 0-0.26412-1.1074zm0.33717 1.4492a12.947 14 0 0 1 0.12643 0.89414 12.947 14 0 0 0-0.12643-0.89414zm0.18825 1.452a12.947 14 0 0 1 0.059 1.2141 12.947 14 0 0 0-0.059-1.2141zm0.03089 1.832a12.947 14 0 0 1-0.05619 0.91875 12.947 14 0 0 0 0.05619-0.91875zm-0.10115 1.2414a12.947 14 0 0 1-0.16858 1.0855 12.947 14 0 0 0 0.16858-1.0855z" fill="#a544c9"/>
 <path d="m43.265 26.042c-4.6009 0.12668-8.6298 2.3562-10.767 5.9582 7.1506 0 12.947 6.268 12.947 14-5e-3 2.0103-0.41041 3.9958-1.1885 5.8215 5.4815 0.71499 10.622-1.5591 13.158-5.8215 3.576-6.0266 0.89648-14.047-5.9847-17.913-2.5106-1.4101-5.3567-2.123-8.1651-2.0453z" fill="#009688"/>
 <path d="m46.65 12.042a12.671 14.305 65.62 0 0-8.1658 2.0467 12.671 14.305 65.62 0 0-5.9847 17.911c2.1372-3.6015 6.1657-5.8309 10.766-5.9575 2.8084-0.07773 5.6545 0.63518 8.1651 2.0453 1.8497 1.0392 3.3927 2.3804 4.5953 3.9006a12.671 14.305 65.62 0 0 1.3901-13.988 12.671 14.305 65.62 0 0-10.766-5.9582zm-14.151 19.958a12.671 14.305 65.62 0 0 10.586 5.9452c-2.3434-3.5948-6.2099-5.945-10.586-5.9452z" fill="#03a9f4"/>
 <path d="m32.499 31.999c-22.315 22.4-11.158 11.2 0 0zm0 6.83e-4c2.2717 4.5274 6.1781 6.4877 10.586 5.9452-2.3434-3.5948-6.2099-5.945-10.586-5.9452z" fill="#ffc107"/>
 <path d="m32.496 4a12.95 14 0 0 0-11.762 8.1797 14.308 12.672 24.336 0 0-13.16 5.8203 14.308 12.672 24.336 0 0-1.5488 6.3711 14.308 12.672 24.336 0 1 1.5488-5.3711 14.308 12.672 24.336 0 1 13.16-5.8203 12.95 14 0 0 1 11.762-8.1797 12.95 14 0 0 1 11.762 8.1777 12.672 14.308 65.664 0 1 2.3926-0.13672 12.672 14.308 65.664 0 1 1.1738 0.08789 12.672 14.308 65.664 0 1 0.68555 0.097656 12.672 14.308 65.664 0 1 0.6875 0.11719 12.672 14.308 65.664 0 1 0.64258 0.15625 12.672 14.308 65.664 0 1 0.66406 0.18164 12.672 14.308 65.664 0 1 0.61524 0.21484 12.672 14.308 65.664 0 1 0.6582 0.25391 12.672 14.308 65.664 0 1 0.55859 0.26172 12.672 14.308 65.664 0 1 0.625 0.31641 12.672 14.308 65.664 0 1 0.54492 0.32812 12.672 14.308 65.664 0 1 0.55859 0.35938 12.672 14.308 65.664 0 1 0.53906 0.41016 12.672 14.308 65.664 0 1 0.47266 0.38086 12.672 14.308 65.664 0 1 0.50195 0.47656 12.672 14.308 65.664 0 1 0.42188 0.42383 12.672 14.308 65.664 0 1 0.42773 0.50586 12.672 14.308 65.664 0 1 0.38281 0.48242 12.672 14.308 65.664 0 1 0.60938 0.9043 12.672 14.308 65.664 0 1 0.39844 0.76953 12.672 14.308 65.664 0 1 0.28516 0.61524 12.672 14.308 65.664 0 1 0.19336 0.50586 12.672 14.308 65.664 0 1 0.24023 0.72266 12.672 14.308 65.664 0 1 0.11328 0.43555 12.672 14.308 65.664 0 1 0.17578 0.83008 12.672 14.308 65.664 0 1 0.05664 0.40039 12.672 14.308 65.664 0 1 0.085938 0.89258 12.672 14.308 65.664 0 1 0.001953 0.080078 12.672 14.308 65.664 0 0 0.009766-0.73242 12.672 14.308 65.664 0 0-0.011719-0.34766 12.672 14.308 65.664 0 0-0.085938-0.89258 12.672 14.308 65.664 0 0-0.05664-0.40039 12.672 14.308 65.664 0 0-0.17578-0.83008 12.672 14.308 65.664 0 0-0.11328-0.43555 12.672 14.308 65.664 0 0-0.24023-0.72266 12.672 14.308 65.664 0 0-0.19336-0.50586 12.672 14.308 65.664 0 0-0.28516-0.61524 12.672 14.308 65.664 0 0-0.39844-0.76953 12.672 14.308 65.664 0 0-0.60938-0.9043 12.672 14.308 65.664 0 0-0.38281-0.48242 12.672 14.308 65.664 0 0-0.42773-0.50586 12.672 14.308 65.664 0 0-0.42188-0.42383 12.672 14.308 65.664 0 0-0.50195-0.47656 12.672 14.308 65.664 0 0-0.47266-0.38086 12.672 14.308 65.664 0 0-0.53906-0.41016 12.672 14.308 65.664 0 0-0.55859-0.35938 12.672 14.308 65.664 0 0-0.54492-0.32812 12.672 14.308 65.664 0 0-0.625-0.31641 12.672 14.308 65.664 0 0-0.55859-0.26172 12.672 14.308 65.664 0 0-0.6582-0.25391 12.672 14.308 65.664 0 0-0.61524-0.21484 12.672 14.308 65.664 0 0-0.66406-0.18164 12.672 14.308 65.664 0 0-0.64258-0.15625 12.672 14.308 65.664 0 0-0.6875-0.11719 12.672 14.308 65.664 0 0-0.68555-0.097656 12.672 14.308 65.664 0 0-1.1738-0.08789 12.672 14.308 65.664 0 0-2.3926 0.13672 12.95 14 0 0 0-11.762-8.1777zm23.891 28.49a12.672 14.308 65.664 0 1-0.36328 0.50586c1.8195 2.3009 2.8538 5.0139 2.9648 7.7266 0.12529-2.8499-0.80203-5.751-2.6016-8.2324zm-47.781 0.021485a12.672 14.308 65.664 0 0-2.584 8.2871 12.672 14.308 65.664 0 1 2.9531-7.7988 14.308 12.672 24.336 0 1-0.36914-0.48828z" fill="#fff" opacity=".2"/>
</svg>
