<?xml version="1.0" encoding="UTF-8" standalone="no"?>
<!-- Uploaded to: SVG Repo, www.svgrepo.com, Generator: SVG Repo Mixer Tools -->

<svg
   width="800px"
   height="800px"
   viewBox="0 0 24 24"
   fill="none"
   version="1.1"
   id="svg1"
   sodipodi:docname="maximized_focus_active.svg"
   inkscape:version="1.4 (e7c3feb, 2024-10-09)"
   xml:space="preserve"
   xmlns:inkscape="http://www.inkscape.org/namespaces/inkscape"
   xmlns:sodipodi="http://sodipodi.sourceforge.net/DTD/sodipodi-0.dtd"
   xmlns="http://www.w3.org/2000/svg"
   xmlns:svg="http://www.w3.org/2000/svg"><defs
     id="defs1" /><sodipodi:namedview
     id="namedview1"
     pagecolor="#ffffff"
     bordercolor="#000000"
     borderopacity="0.25"
     inkscape:showpageshadow="2"
     inkscape:pageopacity="0.0"
     inkscape:pagecheckerboard="0"
     inkscape:deskcolor="#d1d1d1"
     inkscape:zoom="0.3425"
     inkscape:cx="360.58394"
     inkscape:cy="221.89781"
     inkscape:window-width="1366"
     inkscape:window-height="776"
     inkscape:window-x="0"
     inkscape:window-y="29"
     inkscape:window-maximized="1"
     inkscape:current-layer="svg1" /><g
     style="fill:#f9f9f9;fill-opacity:0.85000002"
     id="g3"
     transform="matrix(0.77432544,0,0,0.77432544,2.7847164,2.8040024)"><path
       d="m 11.9425,1.25 h 0.1148 c 2.3084,-1e-5 4.1174,-2e-5 5.5289,0.18975 1.4447,0.19424 2.5848,0.59958 3.4796,1.49439 0.8948,0.89481 1.3001,2.03483 1.4944,3.47957 0.1897,1.41148 0.1897,3.22052 0.1897,5.52889 v 0.1148 c 0,2.3084 0,4.1174 -0.1897,5.5289 -0.1943,1.4447 -0.5996,2.5848 -1.4944,3.4796 -0.8284,0.8284 -1.8678,1.2379 -3.1665,1.4481 -1.2768,0.2067 -2.8829,0.2318 -4.898,0.2354 -0.4142,8e-4 -0.7506,-0.3344 -0.7514,-0.7486 -7e-4,-0.4142 0.3344,-0.7506 0.7487,-0.7514 2.0399,-0.0037 3.523,-0.0319 4.661,-0.2161 1.116,-0.1807 1.8169,-0.4995 2.3455,-1.0281 0.5697,-0.5697 0.8966,-1.3404 1.0684,-2.6188 0.1748,-1.3 0.1764,-3.0082 0.1764,-5.3864 0,-2.37822 -0.0016,-4.08644 -0.1764,-5.38642 C 20.9017,5.33517 20.5748,4.56445 20.0051,3.9948 19.4355,3.42514 18.6647,3.09825 17.3863,2.92637 16.0864,2.75159 14.3781,2.75 11.9999,2.75 9.62169,2.75 7.91347,2.75159 6.61349,2.92637 5.33509,3.09825 4.56437,3.42514 3.99471,3.9948 3.46609,4.52341 3.1473,5.22427 2.96665,6.34031 2.78246,7.47827 2.75416,8.96143 2.75049,11.0014 2.74974,11.4156 2.41335,11.7507 1.99914,11.75 1.58493,11.7493 1.24975,11.4129 1.25049,10.9986 1.25412,8.9835 1.27926,7.37741 1.48592,6.10063 1.69614,4.80193 2.10563,3.76255 2.93405,2.93414 3.82886,2.03933 4.96888,1.63399 6.41362,1.43975 7.82511,1.24998 9.63414,1.24999 11.9425,1.25 Z"
       fill="#1c274c"
       id="path1-2"
       style="fill:#f9f9f9;fill-opacity:0.85000002" /><path
       d="m 12.5,7 c 0,-0.41421 0.3358,-0.75 0.75,-0.75 H 17 c 0.4142,0 0.75,0.33579 0.75,0.75 v 3.75 c 0,0.4142 -0.3358,0.75 -0.75,0.75 -0.4142,0 -0.75,-0.3358 -0.75,-0.75 V 8.81066 l -3.7197,3.71964 c -0.2929,0.2929 -0.7677,0.2929 -1.0606,0 -0.2929,-0.2929 -0.2929,-0.7677 0,-1.0606 L 15.1893,7.75 H 13.25 C 12.8358,7.75 12.5,7.41421 12.5,7 Z"
       fill="#1c274c"
       id="path2-4"
       style="fill:#f9f9f9;fill-opacity:0.85000002" /><path
       fill-rule="evenodd"
       clip-rule="evenodd"
       d="m 5.948,13.25 c -0.89848,0 -1.6477,-10e-5 -2.24248,0.0799 C 3.07773,13.4143 2.51093,13.6 2.05546,14.0555 1.59999,14.5109 1.41432,15.0777 1.32991,15.7055 1.24995,16.3003 1.24997,17.0495 1.25,17.948 v 0.104 c -3e-5,0.8985 -5e-5,1.6477 0.07991,2.2425 0.08441,0.6278 0.27008,1.1946 0.72555,1.65 0.45547,0.4555 1.02227,0.6412 1.65006,0.7256 0.59478,0.08 1.34399,0.0799 2.24246,0.0799 H 6.052 c 0.89847,0 1.64771,10e-5 2.24248,-0.0799 0.6278,-0.0844 1.1946,-0.2701 1.65007,-0.7256 0.45545,-0.4554 0.64115,-1.0222 0.72555,-1.65 0.08,-0.5948 0.0799,-1.344 0.0799,-2.2425 v -0.104 c 0,-0.8985 10e-5,-1.6477 -0.0799,-2.2425 C 10.5857,15.0777 10.4,14.5109 9.94455,14.0555 9.48908,13.6 8.92228,13.4143 8.29448,13.3299 7.6997,13.2499 6.95048,13.25 6.052,13.25 Z M 3.11612,15.1161 C 3.24644,14.9858 3.44393,14.8786 3.9054,14.8165 4.38843,14.7516 5.03599,14.75 6,14.75 c 0.96401,0 1.61157,0.0016 2.09461,0.0665 0.46146,0.0621 0.65896,0.1693 0.78928,0.2996 0.13031,0.1303 0.23754,0.3278 0.29958,0.7893 C 9.24841,16.3884 9.25,17.036 9.25,18 9.25,18.964 9.24841,19.6116 9.18347,20.0946 9.12143,20.5561 9.0142,20.7536 8.88389,20.8839 8.75357,21.0142 8.55607,21.1214 8.09461,21.1835 7.61157,21.2484 6.96401,21.25 6,21.25 5.03599,21.25 4.38843,21.2484 3.9054,21.1835 3.44393,21.1214 3.24644,21.0142 3.11612,20.8839 2.9858,20.7536 2.87858,20.5561 2.81654,20.0946 2.7516,19.6116 2.75,18.964 2.75,18 c 0,-0.964 0.0016,-1.6116 0.06654,-2.0946 0.06204,-0.4615 0.16926,-0.659 0.29958,-0.7893 z"
       fill="#1c274c"
       id="path3-6"
       style="fill:#f9f9f9;fill-opacity:0.85000002" /></g></svg>
