<?xml version="1.0" encoding="UTF-8" standalone="no"?>
<!-- Uploaded to: SVG Repo, www.svgrepo.com, Generator: SVG Repo Mixer Tools -->

<svg
   width="800px"
   height="800px"
   viewBox="0 0 24 24"
   fill="none"
   version="1.1"
   id="svg1"
   sodipodi:docname="minimize_normal.svg"
   inkscape:version="1.4 (e7c3feb, 2024-10-09)"
   xml:space="preserve"
   xmlns:inkscape="http://www.inkscape.org/namespaces/inkscape"
   xmlns:sodipodi="http://sodipodi.sourceforge.net/DTD/sodipodi-0.dtd"
   xmlns="http://www.w3.org/2000/svg"
   xmlns:svg="http://www.w3.org/2000/svg"><defs
     id="defs1" /><sodipodi:namedview
     id="namedview1"
     pagecolor="#ffffff"
     bordercolor="#000000"
     borderopacity="0.25"
     inkscape:showpageshadow="2"
     inkscape:pageopacity="0.0"
     inkscape:pagecheckerboard="0"
     inkscape:deskcolor="#d1d1d1"
     inkscape:zoom="0.3425"
     inkscape:cx="243.79562"
     inkscape:cy="452.55474"
     inkscape:window-width="1366"
     inkscape:window-height="776"
     inkscape:window-x="0"
     inkscape:window-y="29"
     inkscape:window-maximized="1"
     inkscape:current-layer="svg1" /><g
     style="fill:none;fill-opacity:0.85000002;stroke:#f9f9f9;stroke-width:0.99998366;stroke-dasharray:none;stroke-opacity:0.34999999"
     id="g2"
     transform="matrix(0.78106276,0,0,0.78106276,2.6941025,2.6504412)"><path
       d="m 12.9999,21.9994 c 4.0551,-0.0073 6.1785,-0.1068 7.5355,-1.4639 1.4645,-1.4644 1.4645,-3.8215 1.4645,-8.5355 0,-4.71405 0,-7.07107 -1.4645,-8.53553 C 19.071,2 16.714,2 11.9999,2 7.28587,2 4.92884,2 3.46438,3.46447 2.10734,4.8215 2.00779,6.94493 2.00049,11"
       stroke="#1c274c"
       stroke-width="1.5"
       stroke-linecap="round"
       id="path1"
       style="fill:none;fill-opacity:0.85000002;stroke:#f9f9f9;stroke-width:0.99998366;stroke-dasharray:none;stroke-opacity:0.34999999" /><path
       d="m 17,7 -5,5 m 0,0 h 3.75 M 12,12 V 8.25"
       stroke="#1c274c"
       stroke-width="1.5"
       stroke-linecap="round"
       stroke-linejoin="round"
       id="path2"
       style="fill:none;fill-opacity:0.85000002;stroke:#f9f9f9;stroke-width:0.99998366;stroke-dasharray:none;stroke-opacity:0.34999999" /><path
       d="M 2,18 C 2,16.1144 2,15.1716 2.58579,14.5858 3.17157,14 4.11438,14 6,14 7.88562,14 8.82843,14 9.41421,14.5858 10,15.1716 10,16.1144 10,18 10,19.8856 10,20.8284 9.41421,21.4142 8.82843,22 7.88562,22 6,22 4.11438,22 3.17157,22 2.58579,21.4142 2,20.8284 2,19.8856 2,18 Z"
       stroke="#1c274c"
       stroke-width="1.5"
       id="path3"
       style="fill:none;fill-opacity:0.85000002;stroke:#f9f9f9;stroke-width:0.99998366;stroke-dasharray:none;stroke-opacity:0.34999999" /></g></svg>
