<?xml version="1.0" encoding="UTF-8" standalone="no"?>
<!-- Uploaded to: SVG Repo, www.svgrepo.com, Generator: SVG Repo Mixer Tools -->

<svg
   fill="#000000"
   width="800px"
   height="800px"
   viewBox="0 0 512 512"
   version="1.1"
   id="svg1"
   sodipodi:docname="mug.svg"
   inkscape:version="1.4 (e7c3feb, 2024-10-09)"
   xmlns:inkscape="http://www.inkscape.org/namespaces/inkscape"
   xmlns:sodipodi="http://sodipodi.sourceforge.net/DTD/sodipodi-0.dtd"
   xmlns="http://www.w3.org/2000/svg"
   xmlns:svg="http://www.w3.org/2000/svg">
  <defs
     id="defs1" />
  <sodipodi:namedview
     id="namedview1"
     pagecolor="#ffffff"
     bordercolor="#000000"
     borderopacity="0.25"
     inkscape:showpageshadow="2"
     inkscape:pageopacity="0.0"
     inkscape:pagecheckerboard="0"
     inkscape:deskcolor="#d1d1d1"
     inkscape:zoom="0.685"
     inkscape:cx="400.72993"
     inkscape:cy="400"
     inkscape:window-width="1366"
     inkscape:window-height="776"
     inkscape:window-x="0"
     inkscape:window-y="29"
     inkscape:window-maximized="1"
     inkscape:current-layer="svg1" />
  <path
     d="m 173.4874,187.6542 c 0.76149,4.51039 4.68613,7.90784 9.37226,7.90784 h 9.66515 c 5.74052,0 10.30949,-4.97901 9.54799,-10.5438 -2.22591,-16.5186 -9.60657,-31.74854 -21.43905,-43.75675 -8.43503,-8.61077 -13.82409,-19.50602 -15.46423,-31.33849 -0.64434,-4.62756 -4.62755,-8.08358 -9.43084,-8.08358 h -9.60657 c -5.74051,0 -10.19234,4.97901 -9.54799,10.54379 2.28449,18.68595 10.5438,35.90748 23.78211,49.43868 7.0292,7.14635 11.5396,16.10858 13.12117,25.83231 z m 65.60584,0 c 0.7615,4.51039 4.68613,7.90784 9.37226,7.90784 h 9.66515 c 5.74051,0 10.30949,-4.97901 9.54799,-10.5438 -2.22591,-16.5186 -9.60656,-31.74854 -21.43904,-43.75675 -8.43504,-8.61077 -13.8241,-19.50602 -15.46424,-31.33849 -0.64435,-4.62756 -4.62756,-8.08358 -9.43084,-8.08358 h -9.60657 c -5.74051,0 -10.25091,4.97901 -9.54799,10.54379 2.28449,18.68595 10.54379,35.90748 23.78212,49.43868 7.02919,7.14635 11.53959,16.10858 13.12116,25.83231 z m 94.24982,26.65236 H 117.78103 c -10.36807,0 -18.744533,8.37647 -18.744533,18.74453 v 112.46715 c 0,31.04562 25.187953,56.23358 56.233573,56.23358 h 112.46715 c 31.04562,0 56.23357,-25.18796 56.23357,-56.23358 h 9.37227 c 36.20036,0 65.60583,-29.40547 65.60583,-65.60583 0,-36.20037 -29.40547,-65.60585 -65.60583,-65.60585 z m 0,93.72264 h -9.37227 v -56.23359 h 9.37227 c 15.52281,0 28.11678,12.59398 28.11678,28.1168 0,15.5228 -12.59397,28.11679 -28.11678,28.11679 z"
     id="path1"
     style="fill:#ffffff;fill-opacity:0.79844;stroke-width:0.585766" />
</svg>
