<?xml version="1.0" encoding="UTF-8" standalone="no"?>
<!-- Generator: Adobe Illustrator 21.1.0, SVG Export Plug-In . SVG Version: 6.00 Build 0)  -->

<svg
   version="1.1"
   id="weather-icon-mostlycloudy"
   x="0px"
   y="0px"
   viewBox="0 0 32 32"
   xml:space="preserve"
   sodipodi:docname="broken-clouds-night.svg"
   width="32"
   height="32"
   inkscape:version="1.4 (e7c3feb, 2024-10-09)"
   xmlns:inkscape="http://www.inkscape.org/namespaces/inkscape"
   xmlns:sodipodi="http://sodipodi.sourceforge.net/DTD/sodipodi-0.dtd"
   xmlns="http://www.w3.org/2000/svg"
   xmlns:svg="http://www.w3.org/2000/svg"><defs
   id="defs2" /><sodipodi:namedview
   id="namedview2"
   pagecolor="#ffffff"
   bordercolor="#000000"
   borderopacity="0.25"
   inkscape:showpageshadow="2"
   inkscape:pageopacity="0.0"
   inkscape:pagecheckerboard="0"
   inkscape:deskcolor="#d1d1d1"
   inkscape:zoom="8.734375"
   inkscape:cx="32"
   inkscape:cy="32"
   inkscape:window-width="1320"
   inkscape:window-height="768"
   inkscape:window-x="46"
   inkscape:window-y="0"
   inkscape:window-maximized="1"
   inkscape:current-layer="weather-icon-mostlycloudy" />
<style
   type="text/css"
   id="style1">
	.st0{fill:#FFFFFF;}
	.st1{fill:#72B8D4;}
</style>

<path
   class="st0"
   d="M 24.316532,28.5 H 7.985887 c -2.8225806,0 -5.141129,-2.318548 -5.141129,-5.141129 0,-2.217742 1.4112903,-4.183468 3.477823,-4.83871 v -0.100806 c 0,-2.570565 2.116935,-4.6875 4.6875,-4.6875 0.604838,0 1.209677,0.100806 1.764112,0.403226 1.209678,-1.86492 3.326613,-2.973791 5.594759,-2.973791 3.679435,0 6.754032,3.024194 6.754032,6.754033 0,0.403225 -0.0504,0.756048 -0.100807,1.159274 2.318549,0.352822 4.133065,2.318548 4.133065,4.737903 C 29.054435,26.332661 26.9375,28.5 24.316532,28.5 Z M 10.959677,15.193548 c -1.764113,0 -3.175403,1.411291 -3.175403,3.175404 0,0.151209 0,0.352822 0.0504,0.554435 l 0.100807,0.705645 -0.705645,0.100807 c -1.71371,0.352822 -2.9233875,1.864919 -2.9233875,3.578629 0,2.016129 1.6633065,3.679435 3.6794355,3.679435 h 16.330645 c 1.814516,0 3.326613,-1.512097 3.326613,-3.326613 0,-1.814516 -1.512097,-3.326613 -3.326613,-3.326613 H 24.16532 l -1.108871,0.0504 0.352822,-1.058468 c 0.15121,-0.504032 0.252016,-1.058468 0.252016,-1.612903 0,-2.923387 -2.368951,-5.241936 -5.241935,-5.241936 -1.915323,0 -3.729839,1.108871 -4.637097,2.822581 L 13.379032,16 12.72379,15.596774 c -0.554435,-0.302419 -1.159274,-0.403226 -1.764113,-0.403226 z"
   id="path1"
   style="stroke-width:0.504032" /><path
   class="st1"
   d="m 28.34879,9.346774 c -1.663306,0 -3.225806,-0.756048 -4.032258,-1.965726 C 23.66129,6.372984 23.510081,4.8104839 24.014113,3.5 v 0 h -0.15121 c -1.41129,0 -2.772177,0.5040323 -3.780242,1.5120968 -1.008064,1.0080642 -1.612903,2.3689512 -1.612903,3.7802422 0,0.201613 0,0.403226 0.0504,0.6048381 v 0.201613 h 0.201613 c 0.252016,0 0.554436,0.0504 0.806452,0.100807 l 0.302419,0.0504 -0.0504,-0.302419 c -0.0504,-0.2520159 -0.0504,-0.4536289 -0.0504,-0.655242 0,-1.7137099 1.108871,-3.2762099 2.721774,-3.8810487 -0.100807,1.3608867 0.252016,2.6209678 1.108871,3.6794357 0.907258,1.159274 2.268145,1.915322 3.881048,2.116935 -0.504032,0.957662 -1.159274,1.5625 -1.965726,1.915323 l -0.302419,0.100806 0.201613,0.252016 c 0.15121,0.201613 0.302419,0.403226 0.453629,0.604839 l 0.100806,0.15121 0.15121,-0.100807 c 1.6129,-0.756045 2.721771,-2.268142 2.973787,-4.0322549 l 0.0504,-0.252016 z"
   id="path2"
   style="stroke-width:0.504032" />
</svg>
