<?xml version="1.0" encoding="UTF-8" standalone="no"?>
<svg
   id="weather-icon-mostlycloudy"
   class="weather-icon weather-icon-white mostlycloudy"
   viewBox="0 0 32 32"
   version="1.1"
   sodipodi:docname="broken-clouds.svg"
   width="32"
   height="32"
   inkscape:version="1.4 (e7c3feb, 2024-10-09)"
   xmlns:inkscape="http://www.inkscape.org/namespaces/inkscape"
   xmlns:sodipodi="http://sodipodi.sourceforge.net/DTD/sodipodi-0.dtd"
   xmlns="http://www.w3.org/2000/svg"
   xmlns:svg="http://www.w3.org/2000/svg">
  <defs
     id="defs3" />
  <sodipodi:namedview
     id="namedview3"
     pagecolor="#ffffff"
     bordercolor="#000000"
     borderopacity="0.25"
     inkscape:showpageshadow="2"
     inkscape:pageopacity="0.0"
     inkscape:pagecheckerboard="0"
     inkscape:deskcolor="#d1d1d1"
     inkscape:zoom="4.3671875"
     inkscape:cx="32.858676"
     inkscape:cy="26.447227"
     inkscape:window-width="1320"
     inkscape:window-height="768"
     inkscape:window-x="46"
     inkscape:window-y="0"
     inkscape:window-maximized="1"
     inkscape:current-layer="weather-icon-mostlycloudy" />
  <style
     id="style1">.st0{fill:#F4A71D;} .st1{fill:#FFFFFF;}</style>
  <g
     id="mostlycloudy"
     transform="matrix(0.50200803,0,0,0.50200803,-0.44350988,-0.51606419)">
    <path
       class="st0"
       d="m 43.1,13.9 c -0.7,0 -1.2,-0.6 -1.2,-1.2 V 9.2 c 0,-0.7 0.6,-1.2 1.2,-1.2 0.7,0 1.2,0.6 1.2,1.2 v 3.4 c 0,0.7 -0.5,1.3 -1.2,1.3 z M 57.6,25 H 54.2 C 53.5,25 53,24.5 53,23.8 c 0,-0.7 0.5,-1.2 1.2,-1.2 h 3.4 c 0.7,0 1.2,0.5 1.2,1.2 0.1,0.7 -0.5,1.2 -1.2,1.2 z m -6.3,-7.9 c -0.3,0 -0.6,-0.1 -0.9,-0.4 -0.5,-0.5 -0.5,-1.3 0,-1.7 l 2.4,-2.4 c 0.5,-0.5 1.3,-0.5 1.7,0 0.5,0.5 0.5,1.3 0,1.7 l -2.4,2.4 C 52,17 51.6,17.1 51.3,17.1 Z m 2.4,18.3 c -0.3,0 -0.6,-0.1 -0.9,-0.4 l -2.4,-2.4 c -0.5,-0.5 -0.5,-1.3 0,-1.7 0.5,-0.5 1.3,-0.5 1.7,0 l 2.4,2.4 c 0.5,0.5 0.5,1.3 0,1.7 -0.1,0.3 -0.5,0.4 -0.8,0.4 z M 35.3,17.2 c -0.3,0 -0.6,-0.1 -0.9,-0.4 L 32,14.5 c -0.5,-0.5 -0.5,-1.3 0,-1.7 0.5,-0.5 1.3,-0.5 1.7,0 l 2.4,2.4 c 0.5,0.5 0.5,1.3 0,1.7 -0.2,0.2 -0.5,0.3 -0.8,0.3 z"
       id="path1" />
    <path
       class="st1"
       d="M 45.6,57.8 H 16 c -5.1,0 -9.3,-4.2 -9.3,-9.3 0,-4 2.6,-7.6 6.3,-8.8 v -0.2 c 0,-4.7 3.8,-8.5 8.5,-8.5 1.1,0 2.2,0.2 3.2,0.7 2.2,-3.4 6,-5.4 10.1,-5.4 6.7,0 12.2,5.5 12.2,12.2 0,0.7 -0.1,1.4 -0.2,2.1 4.2,0.6 7.5,4.2 7.5,8.6 -0.1,4.7 -3.9,8.6 -8.7,8.6 z M 21.4,33.7 c -3.2,0 -5.8,2.6 -5.8,5.8 0,0.3 0,0.6 0.1,1 l 0.2,1.3 -1.3,0.2 c -3.1,0.6 -5.3,3.4 -5.3,6.5 0,3.7 3,6.7 6.7,6.7 h 29.6 c 3.3,0 6,-2.7 6,-6 0,-3.3 -2.7,-6 -6,-6 h -0.3 l -2,0.1 0.6,-1.9 c 0.3,-0.9 0.5,-1.9 0.5,-2.9 0,-5.3 -4.3,-9.5 -9.5,-9.5 -3.5,0 -6.8,2 -8.4,5.1 l -0.7,1.3 -1.2,-0.7 c -1,-0.8 -2.1,-1 -3.2,-1 z"
       id="path2" />
    <path
       class="st0"
       d="m 44.6,16 c -4.2,-0.8 -8.2,2 -8.9,6.2 -0.1,0.4 -0.1,0.7 -0.1,1.1 -0.1,0.5 0.3,1 0.9,1.1 1.1,0.1 1,-1 1.2,-1.7 0.6,-3.1 3.5,-5.1 6.6,-4.6 3.1,0.6 5.1,3.5 4.6,6.6 -0.1,0.7 -0.3,1.4 -0.7,2 -0.5,0.7 -1.3,1.3 -2,1.8 -0.6,0.4 -0.3,1.3 0.4,1.4 0.8,0.2 1.5,-0.4 2.1,-1 0.7,-0.6 1.3,-1.5 1.7,-2.4 0.2,-0.5 0.4,-1 0.5,-1.5 0.7,-4.3 -2.1,-8.3 -6.3,-9 z"
       id="path3" />
  </g>
</svg>
