<?xml version="1.0" encoding="UTF-8" standalone="no"?>
<!-- Generator: Adobe Illustrator 21.1.0, SVG Export Plug-In . SVG Version: 6.00 Build 0)  -->

<svg
   version="1.1"
   id="Layer_4"
   x="0px"
   y="0px"
   viewBox="0 0 32 32"
   xml:space="preserve"
   sodipodi:docname="clear-sky-night.svg"
   width="32"
   height="32"
   inkscape:version="1.4 (e7c3feb, 2024-10-09)"
   xmlns:inkscape="http://www.inkscape.org/namespaces/inkscape"
   xmlns:sodipodi="http://sodipodi.sourceforge.net/DTD/sodipodi-0.dtd"
   xmlns="http://www.w3.org/2000/svg"
   xmlns:svg="http://www.w3.org/2000/svg"><defs
   id="defs1" /><sodipodi:namedview
   id="namedview1"
   pagecolor="#ffffff"
   bordercolor="#000000"
   borderopacity="0.25"
   inkscape:showpageshadow="2"
   inkscape:pageopacity="0.0"
   inkscape:pagecheckerboard="0"
   inkscape:deskcolor="#d1d1d1"
   inkscape:zoom="8.734375"
   inkscape:cx="32"
   inkscape:cy="32"
   inkscape:window-width="1320"
   inkscape:window-height="768"
   inkscape:window-x="46"
   inkscape:window-y="0"
   inkscape:window-maximized="1"
   inkscape:current-layer="Layer_4" />
<style
   type="text/css"
   id="style1">
	.st0{fill:#72B8D4;}
</style>
<path
   class="st0"
   d="m 25.316382,17.536129 c -5.791264,0 -12.186835,-4.582653 -9.266023,-12.0357586 v 0 C 9.805865,5.4500124 5.525365,10.536253 5.525365,15.975006 5.525365,21.76627 10.208736,26.5 16.050359,26.5 c 5.287676,0 9.668894,-3.827271 10.424276,-8.913512 0,-0.05036 -0.755382,-0.05036 -1.158253,-0.05036 z m -9.114947,7.402747 c -4.985523,0 -9.014229,-4.028706 -9.014229,-9.014229 0,-4.129424 2.920812,-7.6041816 6.697724,-8.7120766 v 0.05036 C 12.978471,13.557783 17.460406,18.84546 24.309206,19.449765 v 0 c -1.762559,3.4244 -4.179782,5.338036 -8.107771,5.489111 z"
   id="path1"
   style="stroke-width:0.503588" />
</svg>
