<?xml version="1.0" encoding="UTF-8" standalone="no"?>
<!-- Generator: Adobe Illustrator 21.1.0, SVG Export Plug-In . SVG Version: 6.00 Build 0)  -->

<svg
   version="1.1"
   id="weather-icon-mostlysunny"
   x="0px"
   y="0px"
   viewBox="0 0 32 32"
   xml:space="preserve"
   sodipodi:docname="few-clouds-night.svg"
   width="32"
   height="32"
   inkscape:version="1.4 (e7c3feb, 2024-10-09)"
   xmlns:inkscape="http://www.inkscape.org/namespaces/inkscape"
   xmlns:sodipodi="http://sodipodi.sourceforge.net/DTD/sodipodi-0.dtd"
   xmlns="http://www.w3.org/2000/svg"
   xmlns:svg="http://www.w3.org/2000/svg"><defs
   id="defs2" /><sodipodi:namedview
   id="namedview2"
   pagecolor="#ffffff"
   bordercolor="#000000"
   borderopacity="0.25"
   inkscape:showpageshadow="2"
   inkscape:pageopacity="0.0"
   inkscape:pagecheckerboard="0"
   inkscape:deskcolor="#d1d1d1"
   inkscape:zoom="3.0880679"
   inkscape:cx="10.848207"
   inkscape:cy="42.907088"
   inkscape:window-width="1320"
   inkscape:window-height="768"
   inkscape:window-x="46"
   inkscape:window-y="0"
   inkscape:window-maximized="1"
   inkscape:current-layer="weather-icon-mostlysunny" />
<style
   type="text/css"
   id="style1">
	.st0{fill:#FFFFFF;}
	.st1{fill:#72B8D4;}
</style>

<path
   class="st0"
   d="M 19.75,28.7 H 7.2 C 4.9,28.7 3,26.8 3,24.5 3,22.75 4.05,21.15 5.7,20.55 5.75,18.5 7.45,16.8 9.6,16.8 c 0.45,0 0.9,0.05 1.25,0.25 1,-1.4 2.65,-2.25 4.4,-2.25 3,0 5.45,2.45 5.45,5.45 0,0.25 0,0.45 -0.05,0.7 1.75,0.4 3.15,1.95 3.15,3.9 -0.1,2.1 -1.85,3.85 -4.05,3.85 z M 9.55,18.45 c -1.2,0 -2.2,1 -2.2,2.2 0,0.15 0,0.25 0.05,0.4 l 0.15,0.8 -0.8,0.2 c -1.2,0.25 -2.05,1.3 -2.05,2.5 0,1.4 1.15,2.55 2.55,2.55 H 19.8 c 1.25,0 2.25,-1 2.25,-2.25 0,-1.25 -1,-2.25 -2.25,-2.25 h -0.15 l -1.25,0.05 0.4,-1.2 c 0.15,-0.4 0.2,-0.75 0.2,-1.2 0,-2.05 -1.7,-3.75 -3.75,-3.75 -1.4,0 -2.7,0.75 -3.35,2 l -0.45,0.8 -0.8,-0.4 C 10.35,18.6 9.9,18.45 9.55,18.45 Z"
   id="path1"
   style="stroke-width:0.5" /><path
   class="st1"
   d="m 28.7,11.95 c 0,0 -0.55,0 -0.8,0 C 25.4,11.95 23,10.8 21.75,9 20.7,7.45 20.55,5.3 21.3,3.3 v 0 h -0.15 c -2.05,0 -4.05,0.75 -5.45,2.2 -1.45,1.45 -2.3,3.45 -2.3,5.55 0,0.65 0.1,1.35 0.25,2 l 0.05,0.2 0.2,-0.05 c 0.35,-0.1 0.75,-0.15 1.15,-0.2 H 15.3 L 15.25,12.8 C 15.1,12.25 15,11.65 15,11.1 c 0,-2.65 1.8,-5.1 4.4,-6 -0.25,2.05 0.3,4 1.55,5.55 1.35,1.75 3.45,2.85 5.85,3.1 -1.1,2.1 -2.5,3.2 -4.5,3.55 l -0.2,0.05 0.1,0.2 c 0.15,0.35 0.25,0.7 0.3,1.05 l 0.05,0.2 0.2,-0.05 C 26,18.1 28.5,15.55 28.95,12.3 L 29,12.1 Z"
   id="path2"
   style="stroke-width:0.5" />
</svg>
