<?xml version="1.0" encoding="UTF-8" standalone="no"?>
<svg
   id="weather-icon-mostlysunny"
   class="weather-icon weather-icon-white mostlysunny"
   viewBox="0 0 32 32"
   version="1.1"
   sodipodi:docname="few-clouds.svg"
   width="32"
   height="32"
   inkscape:version="1.4 (e7c3feb, 2024-10-09)"
   xmlns:inkscape="http://www.inkscape.org/namespaces/inkscape"
   xmlns:sodipodi="http://sodipodi.sourceforge.net/DTD/sodipodi-0.dtd"
   xmlns="http://www.w3.org/2000/svg"
   xmlns:svg="http://www.w3.org/2000/svg">
  <defs
     id="defs3" />
  <sodipodi:namedview
     id="namedview3"
     pagecolor="#ffffff"
     bordercolor="#000000"
     borderopacity="0.25"
     inkscape:showpageshadow="2"
     inkscape:pageopacity="0.0"
     inkscape:pagecheckerboard="0"
     inkscape:deskcolor="#d1d1d1"
     inkscape:zoom="2.1835938"
     inkscape:cx="18.776386"
     inkscape:cy="45.109123"
     inkscape:window-width="1320"
     inkscape:window-height="768"
     inkscape:window-x="46"
     inkscape:window-y="0"
     inkscape:window-maximized="1"
     inkscape:current-layer="weather-icon-mostlysunny" />
  <style
     id="style1">.st0{fill:#F4A71D;} .st1{fill:#FFFFFF;}</style>
  <g
     id="mostlysunny"
     transform="matrix(0.5,0,0,0.5,-0.175,-0.475)">
    <path
       class="st0"
       d="m 35.5,15.3 c -0.7,0 -1.3,-0.6 -1.3,-1.3 V 9 c 0,-0.7 0.6,-1.3 1.3,-1.3 0.7,0 1.3,0.6 1.3,1.3 v 5 c 0,0.7 -0.6,1.3 -1.3,1.3 z M 19.2,31.6 h -5 c -0.7,0 -1.3,-0.6 -1.3,-1.3 0,-0.7 0.6,-1.3 1.3,-1.3 h 5 c 0.7,0 1.3,0.6 1.3,1.3 0,0.7 -0.6,1.3 -1.3,1.3 z m 37.5,0 h -5 C 51,31.6 50.4,31 50.4,30.3 50.4,29.6 51,29 51.7,29 h 5 c 0.7,0 1.3,0.6 1.3,1.3 0,0.7 -0.6,1.3 -1.3,1.3 z M 47.5,20 c -0.3,0 -0.7,-0.1 -0.9,-0.4 -0.5,-0.5 -0.5,-1.4 0,-1.9 l 3.5,-3.5 c 0.5,-0.5 1.4,-0.5 1.9,0 0.5,0.5 0.5,1.4 0,1.9 l -3.5,3.5 c -0.3,0.2 -0.7,0.4 -1,0.4 z M 51,46.8 c -0.3,0 -0.7,-0.1 -0.9,-0.4 l -3.5,-3.5 c -0.5,-0.5 -0.5,-1.4 0,-1.9 0.5,-0.5 1.3,-0.5 1.9,0 l 3.5,3.5 c 0.5,0.5 0.5,1.4 0,1.9 -0.3,0.2 -0.7,0.4 -1,0.4 z M 24,20.2 c -0.3,0 -0.7,-0.1 -0.9,-0.4 l -3.5,-3.5 c -0.5,-0.5 -0.5,-1.4 0,-1.9 0.5,-0.5 1.3,-0.5 1.9,0 l 3.5,3.5 c 0.5,0.5 0.5,1.4 0,1.9 -0.3,0.3 -0.7,0.4 -1,0.4 z"
       id="path1" />
    <path
       class="st1"
       d="m 33.4,58.2 h -20 c -3.7,0 -6.7,-3 -6.7,-6.7 0,-2.8 1.7,-5.3 4.3,-6.3 0.1,-3.3 2.8,-6 6.2,-6 0.7,0 1.4,0.1 2,0.4 1.6,-2.2 4.2,-3.6 7,-3.6 4.8,0 8.7,3.9 8.7,8.7 0,0.4 0,0.7 -0.1,1.1 2.8,0.6 5,3.1 5,6.2 -0.1,3.4 -2.9,6.2 -6.4,6.2 z M 17.1,41.9 c -1.9,0 -3.5,1.6 -3.5,3.5 0,0.2 0,0.4 0.1,0.6 l 0.2,1.3 -1.3,0.3 c -1.9,0.4 -3.3,2.1 -3.3,4 0,2.2 1.8,4.1 4.1,4.1 h 20 c 2,0 3.6,-1.6 3.6,-3.6 0,-2 -1.6,-3.6 -3.6,-3.6 h -0.2 l -2,0.1 0.6,-1.9 c 0.2,-0.6 0.3,-1.2 0.3,-1.9 0,-3.3 -2.7,-6 -6,-6 -2.2,0 -4.3,1.2 -5.3,3.2 l -0.7,1.3 -1.2,-0.7 c -0.5,-0.5 -1.2,-0.7 -1.8,-0.7 z"
       id="path2" />
    <path
       class="st0"
       d="m 47.5,30.3 c 0,-6.6 -5.4,-12 -12,-12 -6.6,0 -12,5.4 -12,12 0,0.7 0.1,1.4 0.2,2 0,0.8 0.7,1.4 1.4,1.3 0.4,0 1,-0.3 1.1,-0.7 0.2,-0.5 0.1,-1 0,-1.5 -0.1,-0.4 -0.1,-0.8 -0.1,-1.1 0,-5.2 4.2,-9.4 9.4,-9.4 5.2,0 9.3,4.2 9.3,9.4 0,0.4 -0.1,0.8 -0.1,1.2 -0.1,0.4 -0.1,0.8 -0.2,1.2 -0.2,0.7 -0.5,1.5 -0.8,2.1 -0.4,0.7 -0.8,1.3 -1.3,1.9 -0.5,0.6 -1.1,1.1 -1.7,1.4 -0.7,0.4 -1.4,0.7 -2.1,1 -0.3,0.1 -0.6,0.1 -0.9,0.3 -0.3,0.1 -0.5,0.4 -0.6,0.7 -0.1,0.2 -0.1,0.3 -0.1,0.5 0,0.7 0.6,1.3 1.4,1.4 5.1,-1.1 9.1,-6.1 9.1,-11.7 z"
       id="path3" />
  </g>
</svg>
