<?xml version="1.0" encoding="UTF-8" standalone="no"?>
<svg
   id="weather-icon-chancerain"
   class="weather-icon weather-icon-white chancerain"
   viewBox="0 0 32 32"
   version="1.1"
   sodipodi:docname="rain.svg"
   width="32"
   height="32"
   inkscape:version="1.4 (e7c3feb, 2024-10-09)"
   xmlns:inkscape="http://www.inkscape.org/namespaces/inkscape"
   xmlns:sodipodi="http://sodipodi.sourceforge.net/DTD/sodipodi-0.dtd"
   xmlns="http://www.w3.org/2000/svg"
   xmlns:svg="http://www.w3.org/2000/svg">
  <defs
     id="defs2" />
  <sodipodi:namedview
     id="namedview2"
     pagecolor="#ffffff"
     bordercolor="#000000"
     borderopacity="0.25"
     inkscape:showpageshadow="2"
     inkscape:pageopacity="0.0"
     inkscape:pagecheckerboard="0"
     inkscape:deskcolor="#d1d1d1"
     inkscape:zoom="2.1835938"
     inkscape:cx="31.599284"
     inkscape:cy="29.538462"
     inkscape:window-width="1320"
     inkscape:window-height="768"
     inkscape:window-x="46"
     inkscape:window-y="0"
     inkscape:window-maximized="1"
     inkscape:current-layer="weather-icon-chancerain" />
  <style
     id="style1">.st0{fill:#FFFFFF;} .st1{fill:#2885C7;}</style>
  <g
     id="chancerain"
     transform="matrix(0.5,0,0,0.5,-0.45,-0.075)">
    <path
       class="st0"
       d="m 50.9,24.1 c 0.1,-0.8 0.2,-1.6 0.2,-2.4 0,-7.4 -6,-13.4 -13.4,-13.4 -4.5,0 -8.7,2.3 -11.2,6 -1.2,-0.5 -2.4,-0.8 -3.7,-0.8 -5.1,0 -9.3,4.1 -9.3,9.3 v 0.3 c -4.1,1.4 -7,5.2 -7,9.7 0,5.6 4.6,10.2 10.2,10.2 h 5 c 1.6,0 1.5,-2.7 0,-2.7 h -5 c -4.2,0 -7.5,-3.4 -7.5,-7.5 0,-3.6 2.5,-6.7 6.1,-7.4 l 1.3,-0.3 -0.2,-1.3 c -0.1,-0.4 -0.1,-0.7 -0.1,-1.1 0,-3.6 3,-6.6 6.6,-6.6 1.2,0 2.4,0.3 3.5,1 l 1.2,0.7 0.7,-1.3 c 1.9,-3.5 5.5,-5.7 9.5,-5.7 5.9,0 10.7,4.8 10.7,10.7 0,1.1 -0.2,2.2 -0.5,3.3 l -0.6,1.9 2.1,-0.1 h 0.3 c 3.8,0 6.8,3.1 6.8,6.8 0,3.8 -3.1,6.8 -6.8,6.8 h -5.7 c -1.7,0 -2,2.7 0,2.7 h 5.7 c 5.2,0 9.5,-4.3 9.5,-9.5 -0.1,-4.7 -3.8,-8.7 -8.4,-9.3 z"
       id="path1" />
    <path
       class="st1"
       d="m 24.9,46.5 c -0.3,0 -0.5,-0.1 -0.8,-0.2 C 23.5,45.9 23.4,45 23.8,44.5 L 26.2,41 c 0.4,-0.6 1.2,-0.7 1.8,-0.3 0.6,0.4 0.7,1.2 0.3,1.8 L 25.9,46 c -0.2,0.3 -0.6,0.5 -1,0.5 z m 5.8,0 c -0.3,0 -0.5,-0.1 -0.8,-0.2 C 29.3,45.9 29.2,45 29.6,44.5 L 32,41 c 0.4,-0.6 1.3,-0.7 1.8,-0.3 0.6,0.4 0.7,1.2 0.3,1.8 L 31.7,46 c -0.2,0.3 -0.6,0.5 -1,0.5 z m 5.8,0 C 36.2,46.5 36,46.4 35.7,46.3 35.1,45.9 35,45 35.4,44.5 L 37.8,41 c 0.4,-0.6 1.3,-0.7 1.8,-0.3 0.6,0.4 0.7,1.2 0.3,1.8 L 37.5,46 c -0.1,0.3 -0.5,0.5 -1,0.5 z M 18.6,56 C 18.3,56 18.1,55.9 17.8,55.8 17.2,55.4 17.1,54.6 17.5,54 l 2.4,-3.5 c 0.4,-0.6 1.3,-0.7 1.9,-0.3 0.6,0.4 0.7,1.2 0.3,1.8 l -2.4,3.5 C 19.4,55.8 19,56 18.6,56 Z m 5.9,0 C 24.2,56 24,55.9 23.7,55.8 23.1,55.4 23,54.6 23.4,54 l 2.4,-3.5 c 0.4,-0.6 1.2,-0.7 1.8,-0.3 0.6,0.4 0.7,1.2 0.3,1.8 l -2.4,3.5 c -0.2,0.3 -0.6,0.5 -1,0.5 z m 5.8,0 C 30,56 29.8,55.9 29.5,55.8 28.9,55.4 28.8,54.6 29.2,54 l 2.4,-3.5 c 0.4,-0.6 1.2,-0.7 1.8,-0.3 0.6,0.4 0.7,1.2 0.3,1.8 l -2.4,3.5 c -0.2,0.3 -0.6,0.5 -1,0.5 z"
       id="path2" />
  </g>
</svg>
