<?xml version="1.0" encoding="UTF-8" standalone="no"?>
<svg
   id="weather-icon-cloudy"
   class="weather-icon weather-icon-white cloudy"
   viewBox="0 0 32 32"
   version="1.1"
   sodipodi:docname="scattered-clouds.svg"
   width="32"
   height="32"
   inkscape:version="1.4 (e7c3feb, 2024-10-09)"
   xmlns:inkscape="http://www.inkscape.org/namespaces/inkscape"
   xmlns:sodipodi="http://sodipodi.sourceforge.net/DTD/sodipodi-0.dtd"
   xmlns="http://www.w3.org/2000/svg"
   xmlns:svg="http://www.w3.org/2000/svg">
  <defs
     id="defs1" />
  <sodipodi:namedview
     id="namedview1"
     pagecolor="#ffffff"
     bordercolor="#000000"
     borderopacity="0.25"
     inkscape:showpageshadow="2"
     inkscape:pageopacity="0.0"
     inkscape:pagecheckerboard="0"
     inkscape:deskcolor="#d1d1d1"
     inkscape:zoom="2.1835938"
     inkscape:cx="16.715563"
     inkscape:cy="32.286225"
     inkscape:window-width="1320"
     inkscape:window-height="768"
     inkscape:window-x="46"
     inkscape:window-y="0"
     inkscape:window-maximized="1"
     inkscape:current-layer="weather-icon-cloudy" />
  <style
     id="style1">.st0{fill:#FFFFFF;}</style>
  <path
     class="st0"
     d="M 24.375,24.675 H 7.925 c -2.8,0 -5.1,-2.3 -5.1,-5.1 0,-2.2 1.45,-4.15 3.5,-4.85 v -0.15 c 0,-2.55 2.1,-4.65 4.65,-4.65 0.65,0 1.25,0.15 1.85,0.4 1.25,-1.85 3.3,-3 5.6,-3 3.7,0 6.7,3 6.7,6.7 0,0.4 -0.05,0.8 -0.1,1.2 2.35,0.3 4.15,2.3 4.15,4.7 -0.05,2.6 -2.2,4.75 -4.8,4.75 z m -13.4,-13.4 c -1.8,0 -3.3,1.5 -3.3,3.3 0,0.15 0,0.35 0.05,0.55 l 0.1,0.65 -0.65,0.1 c -1.75,0.35 -3.05,1.9 -3.05,3.7 0,2.1 1.7,3.75 3.75,3.75 h 16.45 c 1.9,0 3.4,-1.55 3.4,-3.4 0,-1.9 -1.55,-3.4 -3.4,-3.4 h -0.15 l -1,0.05 0.3,-0.95 c 0.15,-0.55 0.25,-1.1 0.25,-1.65 0,-2.95 -2.4,-5.35 -5.35,-5.35 -2,0 -3.8,1.1 -4.75,2.85 l -0.35,0.65 -0.6,-0.35 c -0.5,-0.35 -1.1,-0.5 -1.7,-0.5 z"
     id="cloudy"
     style="stroke-width:0.5" />
</svg>
