<?xml version="1.0" encoding="UTF-8" standalone="no"?>
<svg
   id="weather-icon-snow"
   class="weather-icon weather-icon-white snow"
   viewBox="0 0 32 32"
   version="1.1"
   sodipodi:docname="snow.svg"
   width="32"
   height="32"
   inkscape:version="1.4 (e7c3feb, 2024-10-09)"
   xmlns:inkscape="http://www.inkscape.org/namespaces/inkscape"
   xmlns:sodipodi="http://sodipodi.sourceforge.net/DTD/sodipodi-0.dtd"
   xmlns="http://www.w3.org/2000/svg"
   xmlns:svg="http://www.w3.org/2000/svg">
  <defs
     id="defs1" />
  <sodipodi:namedview
     id="namedview1"
     pagecolor="#ffffff"
     bordercolor="#000000"
     borderopacity="0.25"
     inkscape:showpageshadow="2"
     inkscape:pageopacity="0.0"
     inkscape:pagecheckerboard="0"
     inkscape:deskcolor="#d1d1d1"
     inkscape:zoom="3.0880679"
     inkscape:cx="19.105798"
     inkscape:cy="23.80129"
     inkscape:window-width="1320"
     inkscape:window-height="768"
     inkscape:window-x="46"
     inkscape:window-y="0"
     inkscape:window-maximized="1"
     inkscape:current-layer="weather-icon-snow" />
  <style
     id="style1">.st0{fill:#72B8D4;}</style>
  <path
     class="st0"
     d="m 25.99107,15.517857 h -2.785714 l 1.178572,-1.178571 c 0.214287,-0.214286 0.214287,-0.535714 0,-0.75 -0.214286,-0.214286 -0.535715,-0.214286 -0.749999,0 l -1.928573,1.928571 h -4.446428 l 3.160714,-3.160715 h 2.732143 c 0.267857,0 0.535715,-0.214285 0.535715,-0.535713 0,-0.267857 -0.214287,-0.535715 -0.535714,-0.535715 h -1.660714 l 1.982142,-1.9821425 c 0.214286,-0.2142859 0.214286,-0.5357147 0,-0.7499997 -0.214285,-0.2142859 -0.535714,-0.2142859 -0.75,0 L 20.741071,10.535714 V 8.8749997 c 0,-0.2678569 -0.214285,-0.5357138 -0.535714,-0.5357138 -0.267857,0 -0.535714,0.2142859 -0.535714,0.5357138 v 2.7321433 l -3.160714,3.160714 V 10.321428 L 18.4375,8.3928569 c 0.214286,-0.2142859 0.214286,-0.5357138 0,-0.7499997 -0.214286,-0.2142859 -0.535714,-0.2142859 -0.75,0 L 16.508929,8.8214287 V 6.0357138 C 16.508929,5.7678569 16.294642,5.5 15.973214,5.5 15.705357,5.5 15.4375,5.7142859 15.4375,6.0357138 V 8.8214287 L 14.258929,7.6428572 c -0.214286,-0.2142859 -0.535714,-0.2142859 -0.75,0 -0.214286,0.2142859 -0.214286,0.5357138 0,0.7499997 L 15.4375,10.321428 v 4.446429 L 12.276785,11.607143 V 8.8749997 c 0,-0.2678569 -0.214285,-0.5357138 -0.535713,-0.5357138 -0.267857,0 -0.535715,0.2142859 -0.535715,0.5357138 V 10.535714 L 9.2232143,8.5535718 c -0.2142859,-0.2142859 -0.5357147,-0.2142859 -0.7499997,0 -0.2142859,0.214285 -0.2142859,0.5357138 0,0.7499997 L 10.455357,11.285714 H 8.7946425 c -0.2678569,0 -0.5357138,0.214286 -0.5357138,0.535715 0,0.267857 0.2142859,0.535713 0.5357138,0.535713 H 11.526786 L 14.6875,15.517857 H 10.241071 L 8.3124997,13.589286 c -0.214286,-0.214286 -0.5357139,-0.214286 -0.7499998,0 -0.2142859,0.214286 -0.2142859,0.535714 0,0.75 l 1.1785716,1.178571 h -2.785715 c -0.2678569,0 -0.5357138,0.214286 -0.5357138,0.535714 0,0.267858 0.2142859,0.535715 0.5357138,0.535715 h 2.785715 l -1.1785716,1.178571 c -0.2142859,0.214286 -0.2142859,0.535714 0,0.75 0.1071429,0.107143 0.2142859,0.160714 0.3749998,0.160714 0.1071431,0 0.2678571,-0.05357 0.375,-0.160714 L 10.241071,16.589286 H 14.6875 L 11.526786,19.75 H 8.7946425 c -0.2678569,0 -0.5357138,0.214286 -0.5357138,0.535714 0,0.267857 0.2142859,0.535714 0.5357138,0.535714 h 1.6607135 l -1.9285704,1.875 c -0.2142859,0.214286 -0.2142859,0.535715 0,0.75 0.107143,0.107143 0.2142859,0.160715 0.3749999,0.160715 0.1071429,0 0.2678569,-0.05357 0.3749998,-0.160715 L 11.258928,21.464286 V 23.125 c 0,0.267857 0.214286,0.535714 0.535714,0.535714 0.267857,0 0.535714,-0.214286 0.535714,-0.535714 v -2.732143 l 3.160714,-3.160714 v 4.446429 l -1.928571,1.928571 c -0.214286,0.214286 -0.214286,0.535714 0,0.75 0.107143,0.107143 0.214286,0.160714 0.375,0.160714 0.160715,0 0.267858,-0.05357 0.375001,-0.160714 l 1.17857,-1.178572 v 2.785715 c 0,0.267857 0.214286,0.535714 0.535715,0.535714 0.267857,0 0.535714,-0.214286 0.535714,-0.535714 v -2.785715 l 1.178571,1.178572 c 0.107143,0.107143 0.214286,0.160714 0.375,0.160714 0.160715,0 0.267858,-0.05357 0.375001,-0.160714 0.214285,-0.214286 0.214285,-0.535714 0,-0.75 L 16.5625,21.678572 v -4.446429 l 3.160715,3.160714 V 23.125 c 0,0.267857 0.214285,0.535714 0.535713,0.535714 0.267857,0 0.535715,-0.214286 0.535715,-0.535714 v -1.660714 l 1.982142,1.982142 c 0.107143,0.107143 0.214286,0.160715 0.375001,0.160715 0.160714,0 0.267857,-0.05357 0.375,-0.160715 0.214286,-0.214285 0.214286,-0.535714 0,-0.75 l -1.982143,-1.982142 h 1.660714 c 0.267857,0 0.535715,-0.214286 0.535715,-0.535715 0,-0.267856 -0.214287,-0.535713 -0.535715,-0.535713 H 20.473214 L 17.3125,16.482143 h 4.446428 l 1.928572,1.928571 c 0.107143,0.107143 0.214286,0.160715 0.375,0.160715 0.160715,0 0.267856,-0.05357 0.375,-0.160715 0.214286,-0.214286 0.214286,-0.535714 0,-0.75 l -1.178571,-1.178571 h 2.785713 c 0.267857,0 0.535715,-0.214286 0.535715,-0.535714 -0.107144,-0.214286 -0.321428,-0.428572 -0.589287,-0.428572 z"
     id="snow"
     style="stroke-width:0.535714" />
</svg>
